<svg width="108" height="108" viewBox="0 0 108 108" fill="none" xmlns="http://www.w3.org/2000/svg">
<path fill-rule="evenodd" clip-rule="evenodd" d="M54 108C83.8234 108 108 83.8234 108 54C108 24.1766 83.8234 0 54 0C24.1766 0 0 24.1766 0 54C0 83.8234 24.1766 108 54 108ZM43 19C40.2386 19 38 17.2091 38 15C38 12.7909 40.2386 11 43 11C45.7614 11 48 12.7909 48 15C48 17.2091 45.7614 19 43 19ZM58 19C58 21.2091 60.2386 23 63 23C65.7614 23 68 21.2091 68 19C68 16.7909 65.7614 15 63 15C60.2386 15 58 16.7909 58 19ZM45 54C40.0294 54 36 50.1944 36 45.5C36 40.8056 40.0294 37 45 37C49.9706 37 54 40.8056 54 45.5C54 50.1944 49.9706 54 45 54Z" fill="#EC315A"/>
</svg>
